<svg xmlns="http://www.w3.org/2000/svg" viewBox="0 0 64 64" fill="none">
  <rect width="64" height="64" rx="14" fill="#78593a"/>
  <path d="M20 14h24c1.1 0 2 .9 2 2v32c0 1.1-.9 2-2 2H20c-1.1 0-2-.9-2-2V16c0-1.1.9-2 2-2z" fill="#fdf6ec" stroke="#5e3f2e" stroke-width="1.5"/>
  <line x1="32" y1="18" x2="32" y2="46" stroke="#d3b896" stroke-width="1"/>
  <line x1="24" y1="22" x2="30" y2="22" stroke="#a87247" stroke-width="1.5" stroke-linecap="round"/>
  <line x1="24" y1="26" x2="29" y2="26" stroke="#a87247" stroke-width="1.5" stroke-linecap="round"/>
  <line x1="24" y1="30" x2="30" y2="30" stroke="#a87247" stroke-width="1.5" stroke-linecap="round"/>
  <line x1="34" y1="22" x2="40" y2="22" stroke="#a87247" stroke-width="1.5" stroke-linecap="round"/>
  <line x1="34" y1="26" x2="39" y2="26" stroke="#a87247" stroke-width="1.5" stroke-linecap="round"/>
  <line x1="34" y1="30" x2="40" y2="30" stroke="#a87247" stroke-width="1.5" stroke-linecap="round"/>
  <path d="M28 38c0-2.2 1.8-4 4-4s4 1.8 4 4" stroke="#c17f28" stroke-width="1.5" stroke-linecap="round" fill="none"/>
  <circle cx="32" cy="42" r="1.5" fill="#c17f28"/>
</svg>
